<svg xmlns="http://www.w3.org/2000/svg" version="1.1" xmlns:xlink="http://www.w3.org/1999/xlink" xmlns:svgjs="http://svgjs.dev/svgjs" width="1000" height="446" viewBox="0 0 1000 446"><g transform="matrix(1,0,0,1,-0.6060606060606233,-0.05637738417453875)"><svg viewBox="0 0 396 177" data-background-color="#a437db" preserveAspectRatio="xMidYMid meet" height="446" width="1000" xmlns="http://www.w3.org/2000/svg" xmlns:xlink="http://www.w3.org/1999/xlink"><g id="tight-bounds" transform="matrix(1,0,0,1,0.2400000000000091,0.022373984302447525)"><svg viewBox="0 0 395.52 176.9552520313951" height="176.9552520313951" width="395.52"><g><svg viewBox="0 0 395.52 176.9552520313951" height="176.9552520313951" width="395.52"><g transform="matrix(1,0,0,1,0,109.36544484803025)"><svg viewBox="0 0 395.52 67.58980718336484" height="67.58980718336484" width="395.52"><g><svg viewBox="0 0 395.52 67.58980718336484" height="67.58980718336484" width="395.52"><g><svg viewBox="0 0 395.52 67.58980718336484" height="67.58980718336484" width="395.52"><g transform="matrix(1,0,0,1,0,0)"><svg width="395.52" viewBox="3.65 -35.35 264.48 45.2" height="67.58980718336484" data-palette-color="#ffffff"><path d="M7.55-3.85L7.55 9.85 3.65 9.85 3.65-25.35 7.55-25.35 7.55-21.5Q10.2-25.75 15.4-25.75L15.4-25.75Q20.45-25.75 23.33-22.08 26.2-18.4 26.2-12.9L26.2-12.9Q26.2-7.05 23.18-3.33 20.15 0.4 15.3 0.4L15.3 0.4Q10.3 0.4 7.55-3.85L7.55-3.85ZM7.55-12.65L7.55-12.65Q7.55-7.8 9.8-5.5 12.05-3.2 14.8-3.2L14.8-3.2Q18-3.2 20.05-5.73 22.1-8.25 22.1-12.9L22.1-12.9Q22.1-17.05 20.1-19.6 18.1-22.15 15.05-22.15 12-22.15 9.78-19.93 7.55-17.7 7.55-12.65ZM35.9-13.85L35.9 0 31.95 0 32-25.35 35.9-25.35 35.9-20.9Q37.9-25.6 42.8-25.6L42.8-25.6Q43.7-25.6 44.2-25.5L44.2-25.5 44.2-21.6Q43.15-21.95 42.05-21.95L42.05-21.95Q39.4-21.95 37.65-19.5 35.9-17.05 35.9-13.85L35.9-13.85ZM70.59-12.6L70.59-12.6Q70.59-6.95 67.4-3.25 64.2 0.45 58.6 0.45L58.6 0.45Q53.15 0.45 49.97-3.23 46.8-6.9 46.8-12.5L46.8-12.5Q46.8-18.15 50.07-21.93 53.35-25.7 58.6-25.7L58.6-25.7Q64.34-25.7 67.47-22 70.59-18.3 70.59-12.6ZM50.9-12.55L50.9-12.55Q50.9-8.6 53-5.83 55.1-3.05 58.6-3.05L58.6-3.05Q62.4-3.05 64.45-5.78 66.5-8.5 66.5-12.55L66.5-12.55Q66.5-16.75 64.55-19.48 62.59-22.2 58.6-22.2L58.6-22.2Q55-22.2 52.95-19.4 50.9-16.6 50.9-12.55ZM110.29-17.4L110.29 0 106.34 0 106.34-16.4Q106.34-22.15 101.49-22.15L101.49-22.15Q99.09-22.15 97.19-19.98 95.29-17.8 95.29-13.85L95.29-13.85 95.29 0 91.34 0 91.34-16.4Q91.34-22.15 86.49-22.15L86.49-22.15Q84.09-22.15 82.19-19.98 80.29-17.8 80.29-13.85L80.29-13.85 80.29 0 76.39 0 76.39-25.35 80.29-25.35 80.29-21.25Q82.39-25.7 87.44-25.7L87.44-25.7Q93.29-25.7 94.84-20.75L94.84-20.75Q95.94-23.15 97.92-24.43 99.89-25.7 102.34-25.7L102.34-25.7Q106.29-25.7 108.29-23.45 110.29-21.2 110.29-17.4L110.29-17.4ZM121.19-3.85L121.19 9.85 117.29 9.85 117.29-25.35 121.19-25.35 121.19-21.5Q123.84-25.75 129.04-25.75L129.04-25.75Q134.09-25.75 136.97-22.08 139.84-18.4 139.84-12.9L139.84-12.9Q139.84-7.05 136.82-3.33 133.79 0.4 128.94 0.4L128.94 0.4Q123.94 0.4 121.19-3.85L121.19-3.85ZM121.19-12.65L121.19-12.65Q121.19-7.8 123.44-5.5 125.69-3.2 128.44-3.2L128.44-3.2Q131.64-3.2 133.69-5.73 135.74-8.25 135.74-12.9L135.74-12.9Q135.74-17.05 133.74-19.6 131.74-22.15 128.69-22.15 125.64-22.15 123.42-19.93 121.19-17.7 121.19-12.65ZM158.34-4.4L158.34-0.65Q156.69 0.25 154.64 0.25L154.64 0.25Q147.14 0.25 147.14-7.4L147.14-7.4 147.14-22.15 143.09-22.15 143.09-25.35 147.14-25.35 147.14-31.65 151.09-31.65 151.09-25.35 158.09-25.35 158.09-22.15 151.09-22.15 151.09-7.3Q151.09-3.25 154.89-3.25L154.89-3.25Q156.84-3.25 158.34-4.4L158.34-4.4ZM168.19-3.75L168.19 0 164.24 0 164.24-35.35 168.19-35.35 168.19-21.55Q170.94-25.75 175.88-25.75L175.88-25.75Q180.69-25.75 183.74-22.08 186.78-18.4 186.78-12.45L186.78-12.45Q186.78-7.1 183.91-3.35 181.03 0.4 175.99 0.4L175.99 0.4Q170.88 0.4 168.19-3.75L168.19-3.75ZM168.19-12.85L168.19-12.85Q168.19-7.8 170.36-5.5 172.53-3.2 175.63-3.2L175.63-3.2Q178.69-3.2 180.69-5.75 182.69-8.3 182.69-12.4L182.69-12.4Q182.69-17.1 180.61-19.63 178.53-22.15 175.38-22.15L175.38-22.15Q172.69-22.15 170.44-19.9 168.19-17.65 168.19-12.85ZM214.88-12.6L214.88-12.6Q214.88-6.95 211.68-3.25 208.48 0.45 202.88 0.45L202.88 0.45Q197.43 0.45 194.26-3.23 191.08-6.9 191.08-12.5L191.08-12.5Q191.08-18.15 194.36-21.93 197.63-25.7 202.88-25.7L202.88-25.7Q208.63-25.7 211.76-22 214.88-18.3 214.88-12.6ZM195.18-12.55L195.18-12.55Q195.18-8.6 197.28-5.83 199.38-3.05 202.88-3.05L202.88-3.05Q206.68-3.05 208.73-5.78 210.78-8.5 210.78-12.55L210.78-12.55Q210.78-16.75 208.83-19.48 206.88-22.2 202.88-22.2L202.88-22.2Q199.28-22.2 197.23-19.4 195.18-16.6 195.18-12.55ZM242.98-12.6L242.98-12.6Q242.98-6.95 239.78-3.25 236.58 0.45 230.98 0.45L230.98 0.45Q225.53 0.45 222.35-3.23 219.18-6.9 219.18-12.5L219.18-12.5Q219.18-18.15 222.46-21.93 225.73-25.7 230.98-25.7L230.98-25.7Q236.73-25.7 239.86-22 242.98-18.3 242.98-12.6ZM223.28-12.55L223.28-12.55Q223.28-8.6 225.38-5.83 227.48-3.05 230.98-3.05L230.98-3.05Q234.78-3.05 236.83-5.78 238.88-8.5 238.88-12.55L238.88-12.55Q238.88-16.75 236.93-19.48 234.98-22.2 230.98-22.2L230.98-22.2Q227.38-22.2 225.33-19.4 223.28-16.6 223.28-12.55ZM252.68-35.15L252.68 0 248.78 0 248.78-35.15 252.68-35.15ZM267.83-25.35L257.83-13.3 268.13 0 263.38 0 253.18-13.3 263.13-25.35 267.83-25.35Z" opacity="1" transform="matrix(1,0,0,1,0,0)" fill="#ffffff" class="undefined-text-0" data-fill-palette-color="primary" id="text-0"></path></svg></g></svg></g></svg></g></svg></g><g transform="matrix(1,0,0,1,151.05544323629488,0)"><svg viewBox="0 0 93.4091135274102 93.40911352741021" height="93.40911352741021" width="93.4091135274102"><g><svg></svg></g><g id="icon-0"><svg viewBox="0 0 93.4091135274102 93.40911352741021" height="93.40911352741021" width="93.4091135274102"><g><path transform="scale(0.93409,0.93409)" d="M30 100c-16.569 0-30-13.431-30-30v-40c0-16.569 13.431-30 30-30h40c16.569 0 30 13.431 30 30v40c0 16.569-13.431 30-30 30z" fill="#ffffff" fill-rule="nonzero" stroke="none" stroke-width="1" stroke-linecap="butt" stroke-linejoin="miter" stroke-miterlimit="10" stroke-dasharray="" stroke-dashoffset="0" font-family="none" font-weight="none" font-size="none" text-anchor="none" style="mix-blend-mode: normal" data-fill-palette-color="accent"></path></g><g transform="matrix(1,0,0,1,18.682160733211624,18.681822705482045)"><svg viewBox="0 0 56.04479206098695 56.04546811644612" height="56.04546811644612" width="56.04479206098695"><g><svg xmlns="http://www.w3.org/2000/svg" xmlns:xlink="http://www.w3.org/1999/xlink" version="1.1" x="0" y="0" viewBox="5.412824897783869 5.195582772773262 79.76931438294501 79.77027662186998" enable-background="new 0 0 90 90" xml:space="preserve" height="56.04546811644612" width="56.04479206098695" class="icon-ju-0" data-fill-palette-color="quaternary" id="ju-0"><path d="M54.624 83.27c-10.792 1.801-22.246-1.411-30.727-8.272-8.062-6.522-13.088-16.744-12.728-27.17 0.349-10.096 5.499-20.182 14.078-25.707 8.769-5.647 20.783-5.62 29.498 0.129 8.154 5.379 12.661 15.857 9.907 25.391-1.424 4.931-4.572 9.475-9.052 12.082-4.663 2.714-10.561 3.268-15.615 1.341-4.544-1.733-8.418-5.448-9.851-10.154-1.47-4.826-0.243-10.416 3.327-14.027 3.452-3.492 8.998-4.743 13.484-2.567 4.259 2.065 6.884 7.148 5.307 11.755-0.85 2.483-2.859 4.611-5.423 5.317-2.69 0.741-5.774-0.221-7.439-2.493-1.629-2.222-1.495-5.503 0.597-7.389 1.054-0.95 2.599-1.429 3.984-1.015 0.41 0.122 2.233 0.566 2.058 1.209 0.087-0.652-1.341-0.82-1.755-0.934-1.29-0.356-2.733 0.004-3.719 0.904-1.739 1.586-1.995 4.459-0.597 6.34 1.417 1.906 4.102 2.721 6.348 1.971 2.287-0.765 3.875-3.013 4.245-5.344 0.746-4.703-3.812-8.759-8.323-8.569-4.774 0.201-8.548 4.373-9.111 8.971-1.056 8.621 8.8 14.488 16.466 12.536 8.546-2.177 12.86-12.372 10.766-20.465-2.34-9.045-11.891-14.664-20.877-14.543-9.785 0.131-18.28 7.23-21.955 16.011-4.038 9.649-2.194 21.17 4.201 29.364 6.485 8.309 16.93 13.113 27.352 13.664 5.766 0.305 11.749-0.537 17.004-3.006 4.955-2.328 8.907-6.258 11.976-10.734 6.303-9.194 8.662-20.938 6.135-31.824C79.845 17.355 61.052 3.689 41.936 5.329 23.164 6.939 7.154 22.991 5.551 41.756c-0.918 10.74 2.777 21.76 9.928 29.817 7.078 7.976 17.424 12.875 28.071 13.353 6.118 0.275 12.303-0.876 17.903-3.359-2.472 0.844-4.993 1.695-7.622 1.838 0.506-0.028 0.982-0.246 1.492-0.242-1.79-0.014-3.465 0.776-5.242 0.87 1.034-0.055 2.103-0.271 3.095-0.566 0.337-0.101 1.458-0.578 1.755-0.242-0.207-0.235-1.358 0.182-1.613 0.243-0.926 0.221-1.953 0.452-2.902 0.51 0.426-0.026 4.536-0.711 4.53-0.755 0.008 0.065-4.022 0.607-4.613 0.769 0.714-0.196 1.505-0.245 2.235-0.367 0.292-0.048 2.164-0.591 2.374-0.402C54.91 83.194 54.661 83.264 54.624 83.27 43.928 85.055 57.114 82.88 54.624 83.27z" fill="#a437db" data-fill-palette-color="quaternary"></path></svg></g></svg></g></svg></g></svg></g><g></g></svg></g><defs></defs></svg><rect width="395.52" height="176.9552520313951" fill="none" stroke="none" visibility="hidden"></rect></g></svg></g></svg>